<svg width="128" height="128" viewBox="0 0 128 128" fill="none" xmlns="http://www.w3.org/2000/svg">
  <!-- 864zeros Obsidian/Forms-Purple App Tile -->
  <rect width="128" height="128" rx="28" fill="url(#bg_grad)"/>
  <rect x="0.5" y="0.5" width="127" height="127" rx="27.5" stroke="url(#border_grad)" stroke-width="1"/>
  
  <!-- Outer Shield Silhouette -->
  <path d="M64 22L94 34V60C94 79.5 81.2 97.4 64 102C46.8 97.4 34 79.5 34 60V34L64 22Z" fill="#151224" stroke="#8b5cf6" stroke-width="2.5" stroke-linejoin="round"/>
  
  <!-- Form Checklist Lines -->
  <!-- Item 1: Active/Checked -->
  <circle cx="48" cy="45" r="4.5" fill="#10b981"/>
  <rect x="58" y="43" width="22" height="4" rx="2" fill="#cbd5e1"/>

  <!-- Item 2: Active/Checked -->
  <circle cx="48" cy="58" r="4.5" fill="#10b981"/>
  <rect x="58" y="56" width="26" height="4" rx="2" fill="#cbd5e1"/>

  <!-- Item 3: Capped / Eliminated (Red cross/line) -->
  <circle cx="48" cy="71" r="4.5" fill="#ef4444"/>
  <rect x="58" y="69" width="18" height="4" rx="2" fill="#64748b" opacity="0.6"/>

  <!-- Guardian Lock / Gate Shackle at Bottom Center -->
  <rect x="56" y="80" width="16" height="12" rx="3" fill="#8b5cf6"/>
  <path d="M59 80V76C59 73.2 61.2 71 64 71C66.8 71 69 73.2 69 76V80" stroke="#8b5cf6" stroke-width="2" stroke-linecap="round"/>
  <circle cx="64" cy="85" r="1.5" fill="#ffffff"/>

  <defs>
    <linearGradient id="bg_grad" x1="0" y1="0" x2="128" y2="128" gradientUnits="userSpaceOnUse">
      <stop stop-color="#0c0914"/>
      <stop offset="1" stop-color="#1e1333"/>
    </linearGradient>
    <linearGradient id="border_grad" x1="0" y1="0" x2="128" y2="128" gradientUnits="userSpaceOnUse">
      <stop stop-color="#8b5cf6" stop-opacity="0.4"/>
      <stop offset="1" stop-color="#10b981" stop-opacity="0.2"/>
    </linearGradient>
  </defs>
</svg>
